#!OML:ASF E:\pregnant2\Project 1\Capture day 1\Session 1\pregnant2.ASF
:FULLY-SPECIFIED
:DEGREES
2503
root -9.14295 17.0705 34.8558 -330.372 -37.5573 358.652
lowerback -5.46414 2.67688 0.588022
upperback -10.8018 3.23914 -3.21153
thorax -8.08431 1.34531 -3.76127
lowerneck -13.7764 6.89634 9.79383
upperneck 39.3206 10.6356 -8.72752
head 18.0743 4.48235 -3.78582
rclavicle 1.65488e-014 -2.94201e-014
rhumerus -83.3481 38.0932 -105.158
rradius 104.203
rwrist -43.8241
rhand 12.3046 -21.5223
rfingers 7.12502
rthumb 217.309 -227.506
lclavicle 1.65488e-014 -2.94201e-014
lhumerus -88.8047 -40.1213 103.063
lradius 98.1624
lwrist 55.4831
lhand 19.7615 30.7049
lfingers 7.12502
lthumb 224.313 -125.53
rfemur -47.7339 19.2721 1.00001
rtibia 31.8402
rfoot -18.959 0.407515
rtoes -15.055
lfemur -41.818 -14.1702 -12.0614
ltibia 31.3203
lfoot -20.876 -8.73081
ltoes -14.7918
2504
root -9.19404 17.0628 34.8262 -330.671 -36.8245 358.879
lowerback -5.49882 2.70464 0.592671
upperback -10.8004 3.27779 -3.26132
thorax -8.05743 1.36421 -3.81527
lowerneck -13.6118 6.97633 9.90436
upperneck 39.3628 10.795 -8.80681
head 18.0986 4.56334 -3.81485
rclavicle 7.54885e-014 -9.54166e-015
rhumerus -83.1702 38.0204 -105.224
rradius 104.248
rwrist -43.4556
rhand 12.049 -21.5993
rfingers 7.12502
rthumb 217.067 -227.646
lclavicle 7.54885e-014 -9.54166e-015
lhumerus -88.8687 -40.2646 103.225
lradius 97.9245
lwrist 55.8529
lhand 20.0259 30.5735
lfingers 7.12502
lthumb 224.559 -125.755
rfemur -47.3943 19.3871 1.16418
rtibia 31.9476
rfoot -18.4093 0.459391
rtoes -13.7713
lfemur -41.7586 -14.284 -11.9463
ltibia 31.336
lfoot -21.0553 -9.20448
ltoes -15.089
2505
root -9.24658 17.0576 34.7959 -330.973 -36.0713 359.099
lowerback -5.51788 2.72721 0.596199
upperback -10.7966 3.30969 -3.30989
thorax -8.03729 1.37984 -3.86802
lowerneck -13.4105 7.05658 10.0056
upperneck 39.388 10.9616 -8.88941
head 18.1043 4.64675 -3.84238
rclavicle -3.0265e-014 -4.13472e-014
rhumerus -82.9814 37.9394 -105.281
rradius 104.289
rwrist -43.1497
rhand 11.7483 -21.7089
rfingers 7.12502
rthumb 216.783 -227.829
lclavicle -3.0265e-014 -4.13472e-014
lhumerus -88.9163 -40.3982 103.367
lradius 97.6942
lwrist 56.1981
lhand 20.3154 30.4707
lfingers 7.12502
lthumb 224.829 -125.963
rfemur -47.045 19.4845 1.35472
rtibia 32.0714
rfoot -17.8636 0.278777
rtoes -12.5025
lfemur -41.6673 -14.3961 -11.8235
ltibia 31.2944
lfoot -21.2012 -9.70006
ltoes -15.3963
2506
root -9.30025 17.0555 34.7651 -331.266 -35.2964 359.308
lowerback -5.52811 2.74472 0.607773
upperback -10.7971 3.33486 -3.35419
thorax -8.02732 1.39142 -3.9214
lowerneck -13.1486 7.14048 10.1097
upperneck 39.3872 11.146 -8.99536
head 18.0845 4.73711 -3.87819
rclavicle 3.89121e-014 3.81667e-014
rhumerus -82.7956 37.8536 -105.335
rradius 104.316
rwrist -42.9647
rhand 11.4109 -21.8702
rfingers 7.12502
rthumb 216.463 -228.072
lclavicle 3.89121e-014 3.81667e-014
lhumerus -88.9557 -40.5113 103.495
lradius 97.4741
lwrist 56.5318
lhand 20.5903 30.4057
lfingers 7.12502
lthumb 225.085 -126.128
rfemur -46.6977 19.5161 1.59771
rtibia 32.2254
rfoot -17.3963 -0.0918923
rtoes -11.4449
lfemur -41.5583 -14.5177 -11.6835
ltibia 31.2007
lfoot -21.3069 -10.2055
ltoes -15.7069
2507
root -9.35456 17.0558 34.7341 -331.538 -34.4986 359.499
lowerback -5.53231 2.76109 0.643595
upperback -10.8017 3.35843 -3.3978
thorax -8.02422 1.40014 -3.98814
lowerneck -12.8645 7.22159 10.2179
upperneck 39.3757 11.3341 -9.1191
head 18.056 4.82844 -3.92276
rclavicle 1.18774e-014 2.46493e-014
rhumerus -82.6048 37.7438 -105.375
rradius 104.329
rwrist -42.9235
rhand 11.047 -22.0853
rfingers 7.12502
rthumb 216.119 -228.373
lclavicle 1.18774e-014 2.46493e-014
lhumerus -88.978 -40.6131 103.606
lradius 97.2677
lwrist 56.8626
lhand 20.812 30.3913
lfingers 7.12502
lthumb 225.291 -126.225
rfemur -46.3552 19.4348 1.92457
rtibia 32.4154
rfoot -17.065 -0.579312
rtoes -10.7639
lfemur -41.4492 -14.6582 -11.5164
ltibia 31.0693
lfoot -21.3748 -10.6988
ltoes -16.0373
2508
root -9.40882 17.0581 34.7032 -331.768 -33.6787 359.663
lowerback -5.5399 2.77317 0.718287
upperback -10.8096 3.37653 -3.43449
thorax -8.02145 1.40333 -4.06917
lowerneck -12.594 7.30333 10.3235
upperneck 39.3647 11.5275 -9.25206
head 18.034 4.92038 -3.97012
rclavicle 7.60351e-015 1.03368e-014
rhumerus -82.3925 37.6362 -105.392
rradius 104.32
rwrist -43.0643
rhand 10.6358 -22.3358
rfingers 7.12502
rthumb 215.729 -228.718
lclavicle 7.60351e-015 1.03368e-014
lhumerus -88.982 -40.6951 103.705
lradius 97.0757
lwrist 57.1809
lhand 20.9299 30.4032
lfingers 7.12502
lthumb 225.4 -126.257
rfemur -46.029 19.1989 2.35995
rtibia 32.6374
rfoot -16.8886 -1.0531
rtoes -10.4784
lfemur -41.3711 -14.8357 -11.2998
ltibia 30.9227
lfoot -21.4069 -11.1497
ltoes -16.3869
